<?xml version="1.0" encoding="UTF-8" standalone="no" ?>
<!DOCTYPE svg PUBLIC "-//W3C//DTD SVG 1.1//EN" "http://www.w3.org/Graphics/SVG/1.1/DTD/svg11.dtd">
<svg xmlns="http://www.w3.org/2000/svg" xmlns:xlink="http://www.w3.org/1999/xlink" version="1.1" width="640" height="640" viewBox="0 0 640 640" xml:space="preserve">
<desc>Created with Fabric.js 5.3.0</desc>
<defs>
</defs>
<g transform="matrix(1.359 0 0 7.248 96 320)" id="jY4A3GmHOXHQwvTvy9g_d"  >
<path style="stroke: rgb(141,240,117); stroke-width: 0; stroke-dasharray: none; stroke-linecap: butt; stroke-dashoffset: 0; stroke-linejoin: miter; stroke-miterlimit: 4; fill: rgb(5,0,0); fill-rule: nonzero; opacity: 1;" vector-effect="non-scaling-stroke"  transform=" translate(0, 0)" d="M -35.32009 -35.32009 L 35.32009 -35.32009 L 35.32009 35.32009 L -35.32009 35.32009 z" stroke-linecap="round" />
</g>
<g transform="matrix(1.359 0 0 4.5300001308 208 415.9999799804)" id="wtAs97TWy_selAJlZWdvM"  >
<path style="stroke: rgb(141,240,117); stroke-width: 0; stroke-dasharray: none; stroke-linecap: butt; stroke-dashoffset: 0; stroke-linejoin: miter; stroke-miterlimit: 4; fill: rgb(5,0,0); fill-rule: nonzero; opacity: 1;" vector-effect="non-scaling-stroke"  transform=" translate(0, 0.000005)" d="M -35.32009 -35.32009 L -35.32009 -35.32009 L -35.32009 -35.32009 C 3.693399999999997 -35.32009 35.32009 -25.83208 35.32009 -14.128040000000002 L 35.32009 14.128029999999999 L 35.32009 14.128029999999999 C 35.32009 25.832079999999998 3.69341 35.32008 -35.32009 35.32008 L -35.32009 35.32008 z" stroke-linecap="round" />
</g>
<g transform="matrix(1.359 0 0 4.5300001308 320.00000231 415.9999876802)" id="vR7n5icldDwfo3g_s2kOh"  >
<path style="stroke: rgb(141,240,117); stroke-width: 0; stroke-dasharray: none; stroke-linecap: butt; stroke-dashoffset: 0; stroke-linejoin: miter; stroke-miterlimit: 4; fill: rgb(5,0,0); fill-rule: nonzero; opacity: 1;" vector-effect="non-scaling-stroke"  transform=" translate(0, 0)" d="M -35.32009 -35.32009 L 35.32009 -35.32009 L 35.32009 35.32009 L -35.32009 35.32009 z" stroke-linecap="round" />
</g>
<g transform="matrix(1.359 0 0 2.2649998474 432 335.9999738204)" id="RqNnGAvFwz8cAV82HY2-8"  >
<path style="stroke: rgb(141,240,117); stroke-width: 0; stroke-dasharray: none; stroke-linecap: butt; stroke-dashoffset: 0; stroke-linejoin: miter; stroke-miterlimit: 4; fill: rgb(5,0,0); fill-rule: nonzero; opacity: 1;" vector-effect="non-scaling-stroke"  transform=" translate(0, 0)" d="M -35.32009 -35.32009 L 35.32009 -35.32009 L 35.32009 35.32009 L -35.32009 35.32009 z" stroke-linecap="round" />
</g>
<g transform="matrix(1.359 0 0 4.5300001308 543.99999769 415.9999876802)" id="yKC-EZr8HYivqUullE744"  >
<path style="stroke: rgb(141,240,117); stroke-width: 0; stroke-dasharray: none; stroke-linecap: butt; stroke-dashoffset: 0; stroke-linejoin: miter; stroke-miterlimit: 4; fill: rgb(5,0,0); fill-rule: nonzero; opacity: 1;" vector-effect="non-scaling-stroke"  transform=" translate(0, 0)" d="M -35.32009 -35.32009 L 35.32009 -35.32009 L 35.32009 35.32009 L -35.32009 35.32009 z" stroke-linecap="round" />
</g>
</svg>